<?xml version="1.0" encoding="UTF-8" standalone="no"?>
<!-- Created with Inkscape (http://www.inkscape.org/) -->

<svg
   width="180"
   height="180"
   viewBox="0 0 180 180"
   version="1.1"
   id="svg1"
   xml:space="preserve"
   inkscape:version="1.3.2 (091e20e, 2023-11-25, custom)"
   sodipodi:docname="Artgols.svg"
   xmlns:inkscape="http://www.inkscape.org/namespaces/inkscape"
   xmlns:sodipodi="http://sodipodi.sourceforge.net/DTD/sodipodi-0.dtd"
   xmlns="http://www.w3.org/2000/svg"
   xmlns:svg="http://www.w3.org/2000/svg"><sodipodi:namedview
     id="namedview1"
     pagecolor="#ffffff"
     bordercolor="#000000"
     borderopacity="0.25"
     inkscape:showpageshadow="2"
     inkscape:pageopacity="0.0"
     inkscape:pagecheckerboard="0"
     inkscape:deskcolor="#d1d1d1"
     inkscape:document-units="px"
     inkscape:zoom="3.0523443"
     inkscape:cx="103.69079"
     inkscape:cy="106.63935"
     inkscape:window-width="1920"
     inkscape:window-height="991"
     inkscape:window-x="-9"
     inkscape:window-y="-9"
     inkscape:window-maximized="1"
     inkscape:current-layer="layer1" /><defs
     id="defs1" /><g
     inkscape:label="Camada 1"
     inkscape:groupmode="layer"
     id="layer1"><path
       style="fill:#000000"
       d="m 93.444487,139.81158 c -3.047277,-0.64175 -8.889823,-2.84249 -12.983436,-4.89053 -5.96691,-2.98526 -8.640006,-4.94928 -13.479244,-9.90367 -5.733225,-5.86965 -10.805419,-13.66682 -10.166472,-15.62829 0.162228,-0.49801 2.112285,1.46086 4.333461,4.35306 6.719911,8.75001 14.499939,14.36494 25.172186,18.16703 5.775879,2.05771 7.339981,2.25852 17.808758,2.28636 12.82663,0.0341 19.26145,-1.41094 27.70252,-6.22114 16.51046,-9.40859 24.26276,-21.56274 26.75008,-41.939063 l 0.64264,-5.264534 1.03825,3.644677 c 2.36186,8.291085 -0.72882,22.14973 -7.12055,31.92865 -12.41211,18.98972 -36.32481,28.38984 -59.698193,23.46745 z M 17.450578,129.75514 c -0.616689,-1.02106 42.874746,-97.188628 44.588073,-98.592444 1.287291,-1.054743 7.772852,-1.383778 10.004303,-0.507554 1.679947,0.659665 1.880561,1.074401 21.102056,43.624959 9.05252,20.039523 16.78115,36.545339 17.17475,36.679589 1.44813,0.49395 9.592,-3.19665 13.09705,-5.93527 3.75387,-2.93302 8.72122,-9.497004 7.85654,-10.381817 -0.27303,-0.279391 -5.08993,-0.507983 -10.70421,-0.507983 h -10.20779 l -3.58087,-7.735286 c -1.96948,-4.254408 -3.38277,-8.263553 -3.14065,-8.909211 0.3712,-0.989841 4.23274,-1.173925 24.62543,-1.173925 l 24.18519,0 0.65228,1.822338 c 0.87371,2.440963 -0.22721,12.990919 -1.88053,18.020904 -4.03075,12.26298 -13.18519,23.10224 -24.20672,28.66184 -14.96538,7.54901 -29.230306,7.54544 -44.210288,-0.0111 -9.351136,-4.71708 -16.866376,-12.45649 -21.397522,-22.03578 -1.818622,-3.844738 -3.18591,-7.634899 -3.038419,-8.422575 0.234244,-1.250977 1.387422,-1.46105 9.116272,-1.660698 l 8.848106,-0.22856 3.192365,4.810414 c 2.954225,4.451569 7.033227,8.631749 7.728545,7.920239 C 87.797124,104.63805 68.127837,61.762327 67.43268,61.984965 67.056596,62.105413 60.020126,77.098432 51.796081,95.302783 43.572037,113.50714 36.445495,128.89206 35.959321,129.4915 c -1.081766,1.33379 -17.719266,1.57078 -18.508743,0.26364 z M 125.89121,58.562506 c -10.42502,-9.335093 -22.9784,-11.288709 -34.496947,-5.368576 -2.208851,1.135273 -4.365594,2.064132 -4.792763,2.064132 -0.427169,0 -2.387141,-3.47889 -4.355494,-7.730867 -2.973963,-6.424263 -3.409188,-7.940025 -2.575125,-8.968407 3.002041,-3.701454 15.95741,-7.604979 25.179099,-7.586603 13.25499,0.02642 24.73866,4.923575 34.10579,14.544257 3.26494,3.353319 6.94643,8.026321 8.18109,10.384449 3.20663,6.124445 2.56002,6.646526 -8.23195,6.646526 h -8.56353 z"
       id="path16" /></g></svg>
